<svg width="47" height="47" viewBox="0 0 47 47" fill="none" xmlns="http://www.w3.org/2000/svg">
<path d="M23.5 47C36.4787 47 47 36.4787 47 23.5C47 10.5213 36.4787 0 23.5 0C10.5213 0 0 10.5213 0 23.5C0 36.4787 10.5213 47 23.5 47Z" fill="#FFCEFF"/>
<path d="M40.514 25.145C40.655 24.957 40.796 24.769 40.89 24.534C40.984 24.299 41.031 24.064 40.984 23.829C40.984 23.594 40.937 23.359 40.843 23.171C40.749 22.936 40.608 22.748 40.42 22.607L40.326 22.56L37.6 19.975L36.143 21.526C32.007 25.85 27.683 27.965 23.265 27.871C16.074 27.73 10.716 21.714 10.622 21.62C10.434 21.432 10.199 21.244 9.96399 21.103C9.72899 20.962 9.44699 20.915 9.16499 20.868C8.88299 20.868 8.60099 20.868 8.31899 20.962C8.03699 21.056 7.80199 21.197 7.61399 21.385L6.01599 22.795L7.42599 24.393C7.70799 24.675 14.006 31.913 23.124 32.101H23.594C28.67 32.101 33.464 29.939 37.976 25.709L39.057 26.696L40.514 25.145Z" fill="black"/>
</svg>
