<svg width="180" height="43" viewBox="0 0 180 43" fill="none" xmlns="http://www.w3.org/2000/svg">
<g clip-path="url(#clip0_22505_286923)">
<path d="M49.8394 9.53125H51.5776V30.8432H49.8394V9.53125ZM47.9093 23.2683C47.9093 28.0263 45.3158 31.1878 41.4244 31.1878C37.476 31.1878 34.8528 28.0575 34.8528 23.2683C34.8528 18.4163 37.4466 15.3172 41.4535 15.3172C45.4016 15.3172 47.9093 18.4163 47.9093 23.2683ZM36.7446 23.2991C36.7446 26.9619 38.6861 29.7024 41.3962 29.7024C44.1049 29.7024 46.0187 26.9619 46.0187 23.2683C46.0187 19.5427 44.1333 16.8016 41.4242 16.8016C38.5997 16.8016 36.7446 19.4807 36.7446 23.2991ZM84.7535 23.2683C84.7535 28.0263 82.1604 31.1878 78.268 31.1878C74.3194 31.1878 71.6964 28.0575 71.6964 23.2683C71.6964 18.4163 74.291 15.3172 78.2973 15.3172C82.2459 15.3172 84.7535 18.4163 84.7535 23.2683ZM73.5882 23.2991C73.5882 26.9619 75.5305 29.7024 78.24 29.7024C80.9487 29.7024 82.8627 26.9619 82.8627 23.2683C82.8627 19.5427 80.9773 16.8016 78.268 16.8016C75.4427 16.8016 73.5882 19.4807 73.5882 23.2991ZM33.5526 23.2683C33.5526 28.0263 30.9586 31.1878 27.068 31.1878C23.119 31.1878 20.4961 28.0575 20.4961 23.2683C20.4961 18.4163 23.09 15.3172 27.0962 15.3172C31.0448 15.3172 33.5526 18.4163 33.5526 23.2683ZM22.388 23.2991C22.388 26.9619 24.3293 29.7024 27.039 29.7024C29.7483 29.7024 31.662 26.9619 31.662 23.2683C31.662 19.5427 29.7763 16.8016 27.068 16.8016C24.2428 16.8016 22.388 19.4807 22.388 23.2991ZM103.91 15.6925V16.413C103.88 17.0707 103.91 17.7588 103.822 18.4163C104.798 16.5382 106.546 15.4735 108.591 15.4735C111.938 15.4735 113.139 17.9465 113.315 21.1082C113.376 21.8291 113.405 23.0499 113.405 23.7688V30.8436H111.671V23.7688C111.671 22.8927 111.64 21.4115 111.584 20.692C111.376 18.2798 110.191 16.9662 108.267 16.9662C106.694 16.9662 105.243 17.9987 104.471 19.6268C104.178 20.2223 104.058 20.8164 103.969 22.1006C103.939 22.5699 103.91 23.5196 103.91 23.7688V30.8436H102.186V9.53125H103.91V15.6925ZM122.814 17.4668C121.647 17.0653 121.095 16.9485 119.932 16.9019C118.201 16.8312 116.964 17.9465 116.964 19.2301C116.964 22.3602 124.059 22.0159 124.059 26.8371C124.059 29.3725 121.951 31.1248 118.865 31.1248C117.564 31.1248 116.468 30.9068 115.169 30.3733L115.293 28.6579C116.592 29.3772 117.593 29.6434 118.748 29.6434C120.712 29.6434 122.154 28.3398 122.154 26.8371C122.154 23.2053 115.227 23.8312 115.227 19.2611C115.227 16.9141 117.076 15.3653 119.96 15.4112C121.073 15.4291 121.596 15.4601 122.95 15.9296L122.814 17.4668ZM63.2181 15.6364C63.2181 15.6364 65.3292 24.2377 65.7693 26.2523L66.2979 28.6725C66.2979 28.6725 66.6266 27.2337 66.8893 26.2546C67.4335 24.2271 69.8433 15.6368 69.8433 15.6368H71.7073L67.3097 30.8288H65.2621C65.2621 30.8288 62.9493 20.7931 62.6784 19.5589C62.5424 18.9393 62.3535 17.9955 62.3535 17.9955C62.3535 17.9955 62.1649 18.9393 62.0279 19.5589C61.757 20.7931 59.4448 30.8288 59.4448 30.8288H57.3963L52.9995 15.6366H54.8632C54.8632 15.6366 57.2736 24.2273 57.818 26.2544C58.0805 27.2336 58.4086 28.6723 58.4086 28.6723C58.4086 28.6723 58.7231 27.2336 58.937 26.2521C59.3778 24.2377 61.4882 15.6362 61.4882 15.6362H63.2181V15.6364ZM11.1409 13.338C11.1409 13.338 13.9782 23.6906 14.4563 25.4783C14.7241 26.4775 15.1435 28.2385 15.1435 28.2385C15.1435 28.2385 15.5142 26.4748 15.7627 25.469C16.202 23.6955 18.8571 13.338 18.8571 13.338H20.6623L16.1626 30.8391H14.1897C14.1897 30.8391 10.8863 18.176 10.7278 17.5284C10.5696 16.8809 10.3314 15.6323 10.3314 15.6323C10.3314 15.6323 10.0936 16.8805 9.93451 17.5284C9.77696 18.176 6.47315 30.8391 6.47315 30.8391H4.49993L0 13.338H1.80581C1.80581 13.338 4.46069 23.6955 4.89923 25.469C5.14827 26.4752 5.51878 28.2385 5.51878 28.2385C5.51878 28.2385 5.93898 26.4771 6.20636 25.4783C6.68492 23.6902 9.5222 13.338 9.5222 13.338H11.1409ZM86.6258 30.8432V15.6631H88.1011V19.1338C88.1011 19.1338 88.9236 15.9048 93.5051 15.6672C94.1428 15.6339 94.9734 15.6536 94.9734 15.6536V11.8356L96.6958 11.1629V15.6576H100.236V17.1966H96.6958V26.4242C96.6958 28.6015 97.3753 29.3592 98.8589 29.3592C99.6809 29.3592 100.358 29.054 100.358 29.054L100.542 30.5542C100.542 30.5542 99.6839 30.8353 98.7768 30.8353C98.3097 30.8353 96.9282 30.9017 95.9826 29.9443C95.3502 29.3042 94.9734 28.2666 94.9734 26.3379C94.9734 24.5758 94.9761 17.1346 94.9738 17.1346C94.3739 17.1303 93.0834 17.0586 92.0373 17.3323C90.6385 17.6995 88.3506 19.1549 88.3506 22.7865V30.8434H86.6258V30.8432Z" fill="#00582D"/>
<path d="M165.365 35.9719C164.303 35.9719 163.301 35.8406 162.356 35.5994C160.797 37.7464 158.786 39.6 156.454 40.8739C158.514 41.9968 160.825 42.6626 163.288 42.6626C172.733 42.6626 179.162 32.8239 179.924 24.4629C179.624 25.5694 177.678 35.9719 165.365 35.9719Z" fill="url(#paint0_linear_22505_286923)"/>
<path d="M167.714 9.83203C163.171 9.83203 160.984 12.4725 160.984 12.4725C165.674 12.9477 171.435 16.2606 171.435 23.1228C171.435 29.7872 167.074 32.8148 163.509 33.8267C163.157 34.4381 162.772 35.0298 162.355 35.5994C163.3 35.8406 164.303 35.9719 165.365 35.9719C177.678 35.9719 179.624 25.5694 179.924 24.4629C179.975 23.9127 180.001 23.3605 180 22.8079C180 13.4273 172.847 9.83203 167.714 9.83203Z" fill="url(#paint1_linear_22505_286923)"/>
<path d="M147.546 35.9719C150.16 35.9719 152.444 35.1725 154.272 33.8913C153.645 34.079 152.876 34.2328 152.101 34.2328C148.624 34.2328 141.475 31.6556 141.475 23.1228C141.475 16.2602 147.237 12.9477 151.926 12.4725C151.926 12.4725 149.739 9.83203 145.196 9.83203C140.063 9.83203 132.91 13.4273 132.91 22.8079C132.91 23.3519 132.934 23.9017 132.986 24.4629C133.286 25.5786 135.194 35.9719 147.546 35.9719Z" fill="url(#paint2_linear_22505_286923)"/>
<path d="M152.101 34.2343C152.876 34.2343 153.646 34.0805 154.272 33.8927L154.273 33.8925C155.115 33.3036 155.859 32.6068 156.494 31.8454V31.8448C156.06 31.2995 154.047 28.571 154.047 24.9204C154.047 21.5062 155.874 20.0487 156.477 19.6597C156.477 19.6591 156.476 19.6586 156.475 19.6582C155.221 18.7221 153.808 18.4512 153.004 18.4512C151.708 18.4512 148.208 19.3401 147.382 23.3419C147.382 23.3405 147.383 23.3389 147.383 23.3379L147.381 23.35C147.351 23.5092 147.324 23.669 147.301 23.8294C147.218 24.4967 147.17 25.235 147.17 26.0433C147.17 29.254 148.534 32.1244 149.601 33.8837C150.526 34.1269 151.392 34.2343 152.101 34.2343Z" fill="url(#paint3_linear_22505_286923)"/>
<path d="M156.52 15.2812C150.817 15.2812 148.106 19.4803 147.382 23.3406C148.208 19.3387 151.707 18.4498 153.003 18.4498C153.807 18.4498 155.221 18.7207 156.475 19.6568C156.475 19.6574 156.476 19.6574 156.476 19.6584C157.844 20.6778 159.022 22.4035 159.022 25.1565C159.022 27.5031 158.111 29.9044 156.493 31.8435V31.8441C154.474 34.2709 151.359 35.9721 147.545 35.9721C135.194 35.9721 133.286 25.5788 132.986 24.463C133.748 32.824 140.177 42.6627 149.623 42.6627C158.845 42.6627 165.893 33.3405 165.893 25.534C165.893 20.1206 162.825 15.2812 156.52 15.2812Z" fill="url(#paint4_linear_22505_286923)"/>
<path d="M156.692 12.094C156.692 12.094 154.723 10.2007 154.586 7.61949C154.486 5.74081 155.247 2.8666 158.217 1.27243C165.169 -2.45276 171.211 2.96651 170.511 6.47747C170.511 6.47747 165.333 4.12038 160.566 6.94127C157.059 9.01523 156.692 12.094 156.692 12.094Z" fill="url(#paint5_linear_22505_286923)"/>
</g>
<defs>
<linearGradient id="paint0_linear_22505_286923" x1="176.077" y1="34.7914" x2="161.237" y2="31.3332" gradientUnits="userSpaceOnUse">
<stop offset="0.121" stop-color="#009950"/>
<stop offset="0.534" stop-color="#6BB453"/>
<stop offset="0.843" stop-color="#9CC854"/>
<stop offset="1" stop-color="#B1D355"/>
</linearGradient>
<linearGradient id="paint1_linear_22505_286923" x1="170.492" y1="2.68177" x2="170.492" y2="36.2136" gradientUnits="userSpaceOnUse">
<stop stop-color="#06A94E"/>
<stop offset="0.149" stop-color="#5AB450"/>
<stop offset="0.318" stop-color="#81C052"/>
<stop offset="0.479" stop-color="#9BCA53"/>
<stop offset="0.626" stop-color="#ABD155"/>
<stop offset="0.747" stop-color="#B1D355"/>
</linearGradient>
<linearGradient id="paint2_linear_22505_286923" x1="143.591" y1="2.68177" x2="143.591" y2="36.2136" gradientUnits="userSpaceOnUse">
<stop stop-color="#06A94E"/>
<stop offset="0.149" stop-color="#5AB450"/>
<stop offset="0.318" stop-color="#81C052"/>
<stop offset="0.479" stop-color="#9BCA53"/>
<stop offset="0.626" stop-color="#ABD155"/>
<stop offset="0.747" stop-color="#B1D355"/>
</linearGradient>
<linearGradient id="paint3_linear_22505_286923" x1="151.832" y1="18.3327" x2="151.832" y2="34.6691" gradientUnits="userSpaceOnUse">
<stop offset="0.187" stop-color="#009950"/>
<stop offset="0.543" stop-color="#74B753"/>
<stop offset="0.78" stop-color="#B1D355"/>
</linearGradient>
<linearGradient id="paint4_linear_22505_286923" x1="145.47" y1="40.92" x2="157.821" y2="-5.61157" gradientUnits="userSpaceOnUse">
<stop offset="0.055" stop-color="#009950"/>
<stop offset="0.125" stop-color="#32A451"/>
<stop offset="0.25" stop-color="#6FB553"/>
<stop offset="0.361" stop-color="#92C454"/>
<stop offset="0.456" stop-color="#A8CE55"/>
<stop offset="0.522" stop-color="#B1D355"/>
</linearGradient>
<linearGradient id="paint5_linear_22505_286923" x1="154.431" y1="13.483" x2="168.687" y2="-0.570811" gradientUnits="userSpaceOnUse">
<stop stop-color="#5CB249"/>
<stop offset="0.484" stop-color="#88C14E"/>
<stop offset="1" stop-color="#B1D355"/>
</linearGradient>
<clipPath id="clip0_22505_286923">
<rect width="180" height="42.6804" fill="white"/>
</clipPath>
</defs>
</svg>
