<svg width="282" height="156" viewBox="0 0 282 156" fill="none" xmlns="http://www.w3.org/2000/svg">
<path d="M82.2514 89.5547C77.4759 88.3669 74.5003 84.2702 74.2457 78.4402C74.1791 76.4888 74.4033 74.5314 74.9184 72.6769C76.488 67.1378 81.3908 64.1562 87.348 64.8289C93.081 65.4713 97.1838 69.6044 97.6929 75.2404C97.7899 76.2646 97.8202 77.2888 97.8868 78.313C97.3717 87.8276 89.657 91.4152 82.2574 89.5547H82.2514ZM111.631 89.779C108.783 90.6092 107.626 89.9729 107.401 86.9913C107.147 83.5611 107.244 80.0704 107.147 76.6464C107.08 73.2163 106.183 69.8892 104.553 66.9076C100.741 60.0231 94.6203 56.9142 87.0632 56.4657C80.6272 56.1142 74.7003 57.5566 70.0217 62.423C66.628 65.944 65.1554 70.3377 64.7675 75.1071C63.9009 86.2883 69.2218 97.4028 82.8695 98.2997C88.6692 98.6815 93.9234 97.4997 97.7656 92.5667C97.8323 92.4697 98.0201 92.5 98.1838 92.4394C98.6625 95.3241 99.9776 97.4391 102.99 97.9785C105.905 98.5542 108.916 98.3603 111.735 97.4028C111.959 97.3058 112.116 97.1786 112.28 96.9846C112.438 96.8271 112.534 96.6028 112.601 96.3786C112.668 94.1363 112.631 91.8637 112.631 89.4941C112.213 89.6214 111.959 89.6881 111.638 89.785" fill="white"/>
<path d="M59.9193 58.9322C59.9193 58.005 59.3436 57.8414 58.7012 57.7141C51.4955 56.3991 44.2535 55.8536 36.9812 57.0717C32.6239 57.8111 28.812 59.6049 27.4363 64.2471C25.6424 70.3013 27.1454 76.5494 34.8359 78.7554C37.7508 79.622 40.8234 79.9432 43.805 80.6159C45.8534 80.9977 47.8715 81.5431 49.8289 82.2158C51.7803 82.9854 52.453 84.749 51.8167 86.6034C51.3016 88.076 50.0895 88.8457 48.6472 89.2275C43.9687 90.4759 39.2962 89.9668 34.3935 89.482L26 89.1002V96.3422C26.2909 96.4695 26.5757 96.5968 26.8666 96.6937C33.6238 98.233 40.5749 98.7118 47.4957 98.1361C49.738 97.9421 51.9137 97.4634 54.0287 96.724C59.0284 94.9969 61.5252 91.2456 61.6222 85.7671C61.7192 80.4825 59.3799 76.7979 54.3499 74.9374C51.6894 74.0102 48.8411 73.5254 46.0837 72.889C43.6475 72.3133 41.2173 71.8951 38.8114 71.2225C37.4963 70.871 36.4418 69.974 36.5388 68.3378C36.6358 66.7015 37.6296 65.9682 38.975 65.55C43.1081 64.2713 47.2715 64.7804 51.5985 64.9743L59.9253 65.3258C59.895 63.2411 59.895 61.0958 59.9253 58.9201" fill="white"/>
<path d="M164.192 65.1804V67.2954C164.192 74.7253 164.192 82.1915 164.259 89.6214C164.325 94.1727 166.083 97.021 169.349 97.8876C172.331 98.627 175.47 98.5603 178.416 97.6937C178.797 97.5967 179.379 97.1786 179.379 96.8937C179.446 94.3302 179.409 91.8031 179.409 89.1124C178.579 89.2396 178.094 89.3366 177.585 89.4335C175.185 89.785 174.155 89.0154 173.901 86.5186C173.804 85.6216 173.773 84.7247 173.773 83.8278V56.7203H168.198C167.077 56.7506 166.053 57.199 165.283 57.999C164.513 58.7989 164.162 59.8595 164.192 60.9443V65.1743V65.1804Z" fill="white"/>
<path d="M169.701 40C171.016 40 172.264 40.5151 173.222 41.4423C174.149 42.3696 174.664 43.618 174.664 44.9634C174.664 45.6663 174.537 46.3754 174.246 47.0481C173.955 47.7208 173.573 48.2965 173.058 48.8116C172.543 49.3267 171.937 49.7085 171.295 49.9994C170.652 50.2903 169.919 50.4176 169.21 50.4176H164.21V45.4542C164.21 44.7512 164.338 44.0422 164.628 43.3695C164.919 42.6968 165.301 42.1211 165.816 41.606C166.331 41.0908 166.937 40.709 167.58 40.4182C168.283 40.1273 168.992 40 169.695 40" fill="white"/>
<path d="M200.584 89.5548C195.809 88.3669 192.833 84.2702 192.578 78.4402C192.512 76.4888 192.736 74.5314 193.281 72.6769C194.851 67.1378 199.754 64.1562 205.711 64.8289C211.444 65.4713 215.547 69.6044 216.056 75.2404C216.153 76.2646 216.183 77.2888 216.25 78.313C215.704 87.8276 207.953 91.385 200.584 89.5548ZM229.958 89.7487C227.14 90.5789 225.952 89.9426 225.728 86.961C225.473 83.5309 225.57 80.0401 225.473 76.6161C225.407 73.186 224.51 69.8589 222.88 66.8773C219.068 59.9928 212.947 56.8839 205.39 56.4354C198.954 56.0839 193.027 57.5263 188.348 62.3927C184.955 65.9137 183.482 70.3074 183.094 75.1132C182.227 86.2943 187.548 97.4088 201.196 98.3058C206.996 98.6876 212.25 97.5058 216.092 92.5425C216.159 92.4455 216.347 92.4758 216.51 92.4152C216.989 95.2999 218.334 97.4149 221.316 97.9543C224.231 98.53 227.243 98.3361 230.061 97.3785C230.285 97.2816 230.443 97.1543 230.607 96.9604C230.764 96.7665 230.861 96.5786 230.928 96.3544C230.994 94.1121 230.958 91.8395 230.958 89.4699C230.54 89.6275 230.255 89.6941 229.964 89.7608" fill="white"/>
<path d="M149.393 82.9551C147.599 87.7609 143.593 90.4517 138.436 90.4517C131.933 90.4517 127.194 85.8095 126.934 78.9493C126.837 76.7737 127.061 74.592 127.576 72.4769C128.891 67.6106 132.764 64.6956 137.733 64.4713C143.115 64.2168 147.345 66.8409 149.266 71.5497C150.769 75.1677 150.835 79.2705 149.393 82.9551ZM159.641 73.6951C158.617 65.4289 153.362 57.5505 143.048 56.6233C136.127 56.0173 130.394 57.999 126.612 64.2471C126.485 64.441 126.322 64.6289 126.164 64.7925V56.4657H121.97C121.328 56.4657 120.655 56.593 120.049 56.8475C119.443 57.1021 118.898 57.4536 118.413 57.9384C117.934 58.3868 117.583 58.9626 117.322 59.5747C117.068 60.1807 116.94 60.8231 116.94 61.4958V109.929C116.94 111.432 117.546 112.911 118.607 113.965C119.661 115.02 121.14 115.632 122.643 115.632H127V91.2213C127.255 91.4759 127.479 91.7365 127.703 92.0213C133.182 100.318 149.102 100.894 155.671 91.4153C159.417 86.0338 160.411 80.0765 159.641 73.7011" fill="white"/>
<path d="M206.505 108.778C206.662 108.62 206.796 108.396 206.887 108.172C206.984 107.948 207.014 107.723 207.014 107.499C207.014 107.275 206.947 107.02 206.856 106.827C206.759 106.602 206.632 106.408 206.438 106.251L206.372 106.184L203.65 103.59L202.178 105.13C198.045 109.457 193.687 111.602 189.239 111.505C181.997 111.347 176.616 105.324 176.555 105.227C176.361 105.002 176.137 104.845 175.913 104.711C175.688 104.584 175.398 104.518 175.113 104.487C174.822 104.457 174.537 104.487 174.282 104.584C174.028 104.681 173.767 104.808 173.543 105.002L171.907 106.414L173.319 108.051C173.573 108.372 179.919 115.578 189.112 115.802H189.56C194.651 115.802 199.493 113.626 204.038 109.366L205.093 110.36L206.505 108.79V108.778Z" fill="#FFCEFF"/>
<path d="M232.606 66.2409C233.012 66.2409 233.4 66.3985 233.697 66.6894C233.988 66.9803 234.146 67.3621 234.146 67.7802C234.146 67.9984 234.103 68.2166 234.018 68.4226C233.928 68.6287 233.812 68.8105 233.649 68.968C233.491 69.1256 233.303 69.2468 233.103 69.3377C232.903 69.4286 232.679 69.465 232.461 69.465H230.91V67.9257C230.91 67.7075 230.952 67.4893 231.037 67.2833C231.128 67.0772 231.243 66.8954 231.406 66.7379C231.564 66.5803 231.752 66.4591 231.952 66.3682C232.17 66.2773 232.388 66.2409 232.606 66.2409Z" fill="white"/>
<path d="M251.284 59.1686V59.8231C251.284 62.126 251.284 64.4411 251.302 66.7439C251.321 68.156 251.866 69.0347 252.878 69.3074C253.799 69.5377 254.775 69.5135 255.69 69.2468C255.811 69.2165 255.987 69.0893 255.987 68.9984C256.005 68.2045 255.999 67.4227 255.999 66.5864C255.738 66.6288 255.593 66.653 255.435 66.6833C254.69 66.7924 254.375 66.5561 254.296 65.7804C254.266 65.5016 254.254 65.2228 254.254 64.9441V56.5445H252.527C252.181 56.5567 251.86 56.696 251.624 56.9445C251.387 57.193 251.278 57.5202 251.284 57.8596V59.1686Z" fill="white"/>
<path d="M252.993 51.3691C253.399 51.3691 253.787 51.5266 254.084 51.8175C254.375 52.1084 254.532 52.4902 254.532 52.9084C254.532 53.1265 254.49 53.3447 254.405 53.5508C254.314 53.7568 254.199 53.9386 254.036 54.0962C253.878 54.2537 253.69 54.375 253.49 54.4659C253.29 54.5568 253.066 54.5931 252.848 54.5931H251.296V53.0538C251.296 52.8356 251.339 52.6175 251.424 52.4114C251.514 52.2054 251.63 52.0236 251.793 51.866C251.951 51.7084 252.139 51.5872 252.339 51.4963C252.557 51.4054 252.775 51.3691 252.993 51.3691Z" fill="white"/>
<path d="M240.145 66.7258C238.667 66.3561 237.746 65.0895 237.661 63.2835C237.643 62.6775 237.709 62.0715 237.879 61.4958C238.364 59.7807 239.885 58.8535 241.733 59.0656C243.509 59.2656 244.781 60.5443 244.939 62.2897C244.969 62.6048 244.981 62.926 245 63.2411C244.83 66.1925 242.43 67.2894 240.145 66.7258ZM249.248 66.7864C248.375 67.047 248.006 66.847 247.939 65.9198C247.86 64.8592 247.89 63.7744 247.86 62.7139C247.842 61.6533 247.563 60.617 247.054 59.6959C245.872 57.5627 243.975 56.5991 241.636 56.4597C239.642 56.3506 237.806 56.7991 236.352 58.3081C235.297 59.3989 234.843 60.7625 234.721 62.2472C234.455 65.7137 236.103 69.1559 240.333 69.4347C242.133 69.5559 243.757 69.1862 244.951 67.6469C244.969 67.6166 245.03 67.6287 245.078 67.6045C245.23 68.4954 245.642 69.1559 246.569 69.3196C247.472 69.4953 248.406 69.4408 249.278 69.1438C249.345 69.1135 249.399 69.0772 249.448 69.0165C249.496 68.9559 249.527 68.8953 249.545 68.8287C249.563 68.1318 249.557 67.4288 249.557 66.6955C249.43 66.7439 249.339 66.7621 249.248 66.7864Z" fill="white"/>
</svg>
